<svg width="58" height="58" viewBox="0 0 58 58" fill="none" xmlns="http://www.w3.org/2000/svg">
<path d="M58 29C58 35.7093 55.6736 42.211 51.4173 47.3974C47.161 52.5838 41.238 56.1339 34.6576 57.4428C28.0772 58.7517 21.2466 57.7385 15.3295 54.5757C9.41242 51.413 4.77503 46.2964 2.20749 40.0978C-0.360045 33.8992 -0.698878 27.0021 1.24873 20.5817C3.19634 14.1613 7.30988 8.61487 12.8885 4.88738C18.467 1.15989 25.1655 -0.517983 31.8425 0.139643C38.5195 0.797268 44.7619 3.74971 49.5061 8.4939L44.1828 13.8172C40.6701 10.3046 36.0482 8.11864 31.1046 7.63173C26.1609 7.14483 21.2014 8.38713 17.071 11.147C12.9406 13.9068 9.89492 18.0134 8.4529 22.7671C7.01089 27.5208 7.26177 32.6274 9.16278 37.2168C11.0638 41.8063 14.4973 45.5946 18.8783 47.9363C23.2593 50.278 28.3168 51.0282 33.1889 50.0591C38.061 49.09 42.4464 46.4615 45.5978 42.6215C48.7492 38.7815 50.4717 33.9676 50.4717 29H58Z" fill="black"/>
<rect x="30" y="29" width="27" height="7" fill="black"/>
</svg>
