<svg width="62" height="38" viewBox="0 0 62 38" fill="none" xmlns="http://www.w3.org/2000/svg">
<path d="M25.9996 8.5C25.9996 12.7634 22.9755 16 19.4996 16C16.0237 16 12.9996 12.7634 12.9996 8.5C12.9996 4.23657 16.0237 1 19.4996 1C22.9755 1 25.9996 4.23657 25.9996 8.5Z" stroke="white" stroke-width="2"/>
<path d="M0.999685 37.1044C0.999685 37.1044 1.49994 25 4.18224 22.9884C6.86453 20.9767 19.5 21.5 19.5 21.5C19.5 21.5 32.9997 21.5 35.4997 22.9884C37.9997 24.4767 38.1679 37.1044 38.1679 37.1044" stroke="white" stroke-width="2"/>
<line x1="40.9996" y1="9" x2="61.9996" y2="9" stroke="white" stroke-width="2"/>
<line x1="47.9996" y1="18" x2="61.9996" y2="18" stroke="white" stroke-width="2"/>
</svg>
