<svg width="123" height="66" viewBox="0 0 123 66" fill="none" xmlns="http://www.w3.org/2000/svg">
<path d="M1.42209 41.2327L1 41.9485V42.8076L1.84419 44.2394L4.65814 45.3848L7.75349 46.387L11.1302 47.6756L14.0849 47.962L16.7581 47.8188L19.2907 46.387L21.8233 44.5257L22.9488 43.3803L25.2 39.8009L26.8884 34.7897L27.7326 30.0649L28.5767 29.4922L29.2802 30.6376V32.7852L28.7174 36.0783L28.5767 39.2282L27.7326 40.66L26.607 43.3803L25.9035 46.2438L23.6523 48.821L22.6674 50.396L22.386 51.9709L23.6523 56.4094L25.2 60.4183L26.4663 63.2819L28.1547 64.7136L30.1244 65L31.6721 64.7136L32.5163 64.1409V63.4251L32.0942 63.2819L31.25 62.2796L29.5616 59.8456L28.5767 57.8412L28.7174 55.1208L30.1244 52.83L32.657 49.3937L34.3453 47.3893L35.1895 46.5302L35.6116 46.6734L35.3302 47.6756L34.9081 48.3915L33.7826 49.3937L33.2198 50.9687L34.064 53.1163L35.3302 54.9776L36.1744 55.8367L37.5814 56.6957L38.707 58.1275L38.8477 58.8434L39.2698 60.7047L40.8174 62.8523L42.2244 63.7114L44.6163 63.9978L46.0233 63.2819L47.0081 61.8501L46.586 60.4183L45.4605 59.4161L44.4756 58.2707L43.35 56.4094L42.2244 54.5481L41.3802 51.6846L41.943 48.821L43.35 46.1007L45.4605 42.8076L47.0081 39.8009L47.2895 37.0805L47.5709 37.6532L49.5407 39.8009L51.6512 41.0895L54.6058 42.2349L57.2791 42.8076L60.2337 43.3803L63.3291 43.2371L65.5802 42.8076L66.4244 42.2349L66.7058 44.6689V49.1074L67.55 52.6868L67.8314 53.689L67.9721 54.5481L67.8314 54.9776L66.4244 55.264L64.0326 55.8367L62.3442 56.6957L61.2186 58.8434L60.9372 61.2774L61.2186 63.2819L61.6407 64.1409H62.907L63.3291 63.2819L65.2988 61.8501L67.1279 60.7047L69.5198 60.4183L71.2081 59.4161L73.7407 58.2707L75.1477 57.2685V56.123V47.1029L75.4291 44.9553C75.5698 43.8098 75.8512 41.4617 75.8512 41.2327C75.8512 41.0036 76.2264 41.1372 76.414 41.2327L76.836 42.2349L77.2581 43.3803L77.8209 45.528L78.5244 45.9575L78.3837 44.2394L78.8058 42.8076L79.5093 44.2394L80.6349 45.8143L81.6198 46.6734L82.0419 45.528L82.7453 44.9553L83.4488 44.2394V45.8143H84.293H84.8558L85.7 44.6689L87.3884 45.8143V47.6756L88.2326 52.9732L89.0696 58.4458L90.2184 61.5301L92.1329 63.4578L93.9056 64.1625L97.4937 64.6145L99.9318 64.1625L100.354 63.0171L99.7911 62.3012L97.0965 61.5638L95.962 61.1446L94.8133 59.9879L94.0012 56.6957L94.7047 46.1007L95.2674 44.9553V43.3803L98.2221 42.8076L99.9105 44.2394V42.8076L100.192 41.2327L101.458 41.519L101.036 40.2304L102.021 39.085L103.709 39.5145L108.071 39.8009L113.136 38.2259L114.824 36.9374L115.387 35.9351L114.965 35.6488L114.121 35.9351H113.136L112.855 35.6488L113.558 35.5056L113.98 34.9329L113.699 34.5034L113.417 34.9329L112.292 35.3624L111.87 34.6465V32.9284L113.277 32.2125H114.965L115.247 33.3579H115.95L116.231 32.9284V32.2125L118.06 31.9262L119.89 31.3535L120.734 30.6376V29.4922L121.156 29.0626L121.719 28.4899L122 27.774L121.719 26.915L121.156 25.6264L119.045 22.906L118.483 21.6174L117.638 18.4676L114.684 15.4608L114.121 13.4564V12.4541L115.247 11.7383L115.95 11.3087L114.684 10.4497L114.965 9.5906L115.95 8.58837L116.372 7.87248V7.44295L114.121 7.87248L114.684 6.58389L111.729 7.44295L112.995 6.58389L110.322 7.1566L111.307 5.72483L109.197 6.58389L110.041 5.2953L108.071 6.58389V6.01119L108.774 5.00895L107.79 4.72259L106.664 5.72483L104.131 7.44295V6.58389V5.00895H103.428L101.599 5.72483V4.29306L100.755 4.72259L99.9105 5.72483H98.6442H97.6593L98.2221 4.29306L97.9407 3.14765L96.2523 4.29306H94.2826L95.8302 3.57718L95.1267 2.28859L93.2977 2.8613L91.75 4.29306H90.7651V3.14765L91.75 2.28859L91.3279 1.71588L89.3581 3.14765L88.3733 2.28859L87.107 1.28635L85.5593 1L85.1372 1.71588L84.7151 2.28859L85.5593 2.8613V3.57718H84.7151L84.293 2.8613H83.4488L84.293 3.57718H83.4488H82.464H81.4791V4.29306H82.464V4.72259L77.6802 7.44295L72.6151 11.0224L68.8163 13.3132L63.8919 12.7405H53.3395L45.3198 12.1678L41.3802 12.7405L33.9233 14.4586L30.1244 16.4631L28.014 18.4676L26.1849 21.4743L25.2 23.6219V25.4832L24.2151 34.217L21.5419 41.519L19.5721 43.6667L17.0395 45.3848L14.6477 46.2438H12.3965L10.4267 45.8143L9.01977 45.0984L7.61279 44.0962L6.34651 42.3781L4.37674 40.66H2.54767L1.42209 41.2327Z" fill="#E4E4E4" stroke="black"/>
</svg>
